<?xml version="1.0" encoding="UTF-8" standalone="no"?>
<svg width="22px" height="21px" viewBox="0 0 22 21" version="1.1" xmlns="http://www.w3.org/2000/svg" xmlns:xlink="http://www.w3.org/1999/xlink">
    <defs></defs>
    <g stroke="none" stroke-width="1" fill="none" fill-rule="evenodd">
        <path d="M12.4433012,15.2009936 C14.7951635,14.9232583 17.296572,14.06813 17.296572,10.0059166 C17.296572,8.85131886 16.8899876,7.91038534 16.2277794,7.18335179 C16.3346115,6.90566372 16.6763705,5.85789809 16.0988831,4.40425529 C16.0988831,4.40425529 15.2437075,4.12619006 13.2343586,5.47300075 C12.3791831,5.23807381 11.4385796,5.08815055 10.5620471,5.08815055 C9.66378039,5.08815055 8.72284687,5.23807381 7.88902835,5.47300075 C5.85789809,4.12619006 5.00276972,4.40425529 5.00276972,4.40425529 C4.42565943,5.85789809 4.76784279,6.90566372 4.87462775,7.18335179 C4.21171233,7.9103382 3.80550513,8.85131886 3.80550513,10.0059166 C3.80550513,14.06813 6.30691356,14.9232583 8.65877589,15.2009936 C8.35968369,15.4580318 8.0816656,15.949337 7.97483349,16.6336094 C7.37598904,16.8899876 5.8151841,17.3819528 4.87462775,15.7570769 C4.87462775,15.7570769 4.31854444,14.7524024 3.27110883,14.6883314 C3.27110883,14.6883314 2.2233432,14.6669744 3.18563371,15.3291355 C3.18563371,15.3291355 3.89093311,15.6502919 4.36158845,16.8685835 C4.36158845,16.8685835 5.00276972,18.9000437 7.95309933,18.2584382 L7.95309933,20.0755742 C7.95309933,20.3540166 7.73952939,20.6744186 7.20513309,20.5889906 C3.01444774,19.1990888 0,15.2223034 0,10.5616699 C0,4.72470449 4.72475163,0 10.5620471,0 C16.3773255,0 21.1237641,4.72475163 21.1024071,10.5616699 C21.1024071,15.2223034 18.0876294,19.1777318 13.8972269,20.5889906 C13.3625006,20.6958228 13.1488835,20.3754207 13.1488835,20.0755742 L13.1488835,17.1469787 C13.1489306,16.1629069 12.8277742,15.5221028 12.4433012,15.2009936 L12.4433012,15.2009936 L12.4433012,15.2009936 Z" fill="#FFFFFF"></path>
    </g>
</svg>