<?xml version="1.0" encoding="UTF-8" standalone="no"?>
<svg width="75px" height="60px" viewBox="0 0 75 60" version="1.1" xmlns="http://www.w3.org/2000/svg" xmlns:xlink="http://www.w3.org/1999/xlink">
    <defs></defs>
    <g stroke="none" stroke-width="1" fill="none" fill-rule="evenodd" stroke-linecap="round" stroke-linejoin="round">
        <g transform="translate(-664.000000, -739.000000)" stroke="#E14A30" stroke-width="2" fill="#FFFFFF">
            <g transform="translate(194.000000, 570.570312)">
                <g transform="translate(0.500000, 0.000000)">
                    <g transform="translate(343.000000, 168.000000)">
                        <g transform="translate(126.500000, 0.429688)">
                            <path d="M19.7978499,22.2736523 C19.7978499,22.2736523 22.7932273,18.8275712 25.7886046,18.8275712 C28.7839819,18.8275712 31.7793592,22.2736523 31.7793592,22.2736523 C31.7793592,22.2736523 34.7747365,18.8275712 37.7701138,18.8275712 C40.7654912,18.8275712 43.7608685,22.2736523 43.7608685,22.2736523 C43.7608685,22.2736523 46.7562458,18.8275712 49.7516231,18.8275712 C52.7470004,18.8275712 55.7423778,22.2736523 55.7423778,22.2736523 C55.7423778,22.2736523 55.9202115,5.68734112 37.7701138,5.25602802 C19.6200162,4.82471492 19.7978499,22.2736523 19.7978499,22.2736523 Z"></path>
                            <path d="M20.1723553,22.7186789 L32.9883263,35.7903413"></path>
                            <path d="M42.8113115,22.7186789 L55.6298358,35.7903413" transform="translate(49.220574, 29.254510) scale(-1, 1) translate(-49.220574, -29.254510) "></path>
                            <path d="M39.1989767,21.5530276 L43.8204413,35.6908075" transform="translate(41.509709, 28.621918) scale(-1, 1) translate(-41.509709, -28.621918) "></path>
                            <path d="M36.3687881,21.863573 L31.7812762,35.6908075" transform="translate(34.075032, 28.777190) scale(-1, 1) translate(-34.075032, -28.777190) "></path>
                            <path d="M25.8566925,36.097606 L25.8566925,54.6070407 L49.4510323,54.6070407 L49.4510323,36.2360968 L25.8566925,36.097606 Z"></path>
                            <path d="M43.0294213,42.7358491 L48.6897987,42.7358491"></path>
                            <path d="M44.85961,48.3962264 L48.6331949,48.3962264"></path>
                        </g>
                    </g>
                </g>
            </g>
        </g>
    </g>
</svg>