<?xml version="1.0" encoding="UTF-8" standalone="no"?>
<svg width="353px" height="77px" viewBox="0 0 353 77" version="1.1" xmlns="http://www.w3.org/2000/svg" xmlns:xlink="http://www.w3.org/1999/xlink">
    <defs></defs>
    <g stroke="none" stroke-width="1" fill="none" fill-rule="evenodd">
        <g transform="translate(8.000000, 8.000000)" fill="#FFFFFF">
            <path d="M225.797346,23.5772786 C229.674212,23.5772786 232.646973,24.4365289 234.715721,26.1550554 C236.784468,27.8735818 237.818827,30.3128755 237.818827,33.4730094 C237.818827,35.1996805 237.338298,36.7308565 236.377226,38.0665832 C235.416155,39.40231 234.039725,40.4529573 232.247897,41.2185568 C234.186329,41.8538414 235.58312,42.8881996 236.438311,44.3216625 C237.293502,45.7551253 237.721091,47.5224933 237.721091,49.6238195 L237.721091,52.4825862 C237.721091,53.5739726 237.859548,54.3802834 238.136467,54.9015426 C238.413386,55.4228018 238.869481,55.7322948 239.504766,55.8300309 L240.677593,55.9766343 L240.677593,59.1286078 L238.0876,59.1286078 C236.214324,59.1286078 234.88269,58.4770436 234.092656,57.1738956 C233.302623,55.8707476 232.907612,54.2907043 232.907612,52.4337184 L232.907612,49.6726873 C232.907612,47.7342546 232.345638,46.178645 231.221673,45.0058118 C230.097708,43.8329785 228.590965,43.2465707 226.701401,43.2465707 L218.980287,43.2465707 L218.980287,55.3657867 L222.963013,56.049936 L222.963013,59.1286078 L210.184082,59.1286078 L210.184082,56.049936 L214.166808,55.3657867 L214.166808,27.3400997 L210.184082,26.6559504 L210.184082,23.5772786 L214.166808,23.5772786 L225.797346,23.5772786 Z M218.980287,39.4593157 L225.308668,39.4593157 C227.996411,39.4593157 229.951104,38.9462089 231.172805,37.9199798 C232.394506,36.8937507 233.005348,35.395153 233.005348,33.4241416 C233.005348,31.5508663 232.41894,30.0685577 231.246107,28.9771712 C230.073273,27.8857847 228.257038,27.3400997 225.797346,27.3400997 L218.980287,27.3400997 L218.980287,39.4593157 Z M262.990634,59.1286078 C262.84403,58.4118764 262.730006,57.7684568 262.648559,57.1983295 C262.567112,56.6282022 262.510101,56.0580835 262.477522,55.4879563 C261.549029,56.6770788 260.38843,57.666642 258.995691,58.4566755 C257.602951,59.246709 256.11657,59.6417198 254.536503,59.6417198 C251.783603,59.6417198 249.690453,58.9697942 248.25699,57.6259228 C246.823527,56.2820514 246.106807,54.3884428 246.106807,51.9450403 C246.106807,49.4364803 247.120804,47.502149 249.148828,46.1419883 C251.176852,44.7818275 253.958217,44.1017573 257.493006,44.1017573 L262.453088,44.1017573 L262.453088,41.0230855 C262.453088,39.4755972 261.964415,38.249842 260.987054,37.3457831 C260.009693,36.4417241 258.649552,35.9897015 256.906592,35.9897015 C255.70118,35.9897015 254.638316,36.144448 253.717968,36.4539456 C252.797619,36.7634433 252.052393,37.18696 251.482265,37.7245086 L250.969153,40.5099736 L247.2552,40.5099736 L247.2552,35.3788539 C248.460612,34.4177822 249.918487,33.6481219 251.628869,33.06985 C253.339251,32.4915781 255.196209,32.2024464 257.199799,32.2024464 C260.197039,32.2024464 262.624116,32.9680344 264.481102,34.4992334 C266.338088,36.0304323 267.266567,38.221317 267.266567,41.0719533 L267.266567,53.8020169 C267.266567,54.1440933 267.270639,54.47802 267.278784,54.803807 C267.286929,55.129594 267.30729,55.4553761 267.339869,55.7811631 L269.294581,56.049936 L269.294581,59.1286078 L262.990634,59.1286078 Z M255.245086,55.6101258 C256.841443,55.6101258 258.299318,55.2273318 259.618755,54.4617323 C260.938193,53.6961329 261.882961,52.7757984 262.453088,51.7007013 L262.453088,47.3514665 L257.321968,47.3514665 C255.350957,47.3514665 253.791275,47.8075614 252.642876,48.7197651 C251.494477,49.6319687 250.920286,50.7396279 250.920286,52.0427759 C250.920286,53.1993198 251.278646,54.0830038 251.995377,54.6938544 C252.712109,55.304705 253.795334,55.6101258 255.245086,55.6101258 L255.245086,55.6101258 Z M276.552757,56.049936 L280.535483,55.3657867 L280.535483,36.4783795 L276.552757,35.7942302 L276.552757,32.6911245 L285.348962,32.6911245 L285.348962,55.3657867 L289.331688,56.049936 L289.331688,59.1286078 L276.552757,59.1286078 L276.552757,56.049936 Z M285.348962,25.9229333 L280.535483,25.9229333 L280.535483,21.0117188 L285.348962,21.0117188 L285.348962,25.9229333 Z M295.588074,24.1148245 L295.588074,21.0117188 L304.384279,21.0117188 L304.384279,55.3657867 L308.367006,56.049936 L308.367006,59.1286078 L295.588074,59.1286078 L295.588074,56.049936 L299.570801,55.3657867 L299.570801,24.7989738 L295.588074,24.1148245 Z M334.489945,40.9986516 L330.873727,40.9986516 L330.091842,37.8222442 C329.505426,37.2684063 328.768344,36.8245282 327.880574,36.4905965 C326.992805,36.1566648 325.986952,35.9897015 324.862987,35.9897015 C323.152605,35.9897015 321.882055,36.3643509 321.051298,37.113661 C320.220541,37.8629711 319.805169,38.7670165 319.805169,39.8258243 C319.805169,40.8683427 320.171674,41.6909425 320.904695,42.2936485 C321.637716,42.8963545 323.128169,43.433895 325.376099,43.9062861 C328.715416,44.6230175 331.199505,45.5962916 332.82844,46.8261376 C334.457375,48.0559835 335.27183,49.7052555 335.27183,51.774003 C335.27183,54.1196694 334.32299,56.0173503 332.42528,57.4671024 C330.527571,58.9168546 328.047555,59.6417198 324.985157,59.6417198 C322.981567,59.6417198 321.18162,59.4096001 319.585264,58.9453536 C317.988908,58.4811071 316.563611,57.8091815 315.309331,56.9295566 L315.284897,50.8943824 L318.901115,50.8943824 L319.805169,54.4372984 C320.359007,54.9422683 321.112378,55.3087732 322.065305,55.5368241 C323.018232,55.764875 323.991506,55.8788987 324.985157,55.8788987 C326.695538,55.8788987 328.035317,55.5327552 329.004534,54.8404578 C329.97375,54.1481604 330.458351,53.2400428 330.458351,52.1160776 C330.458351,51.0572698 330.055196,50.1858027 329.248873,49.50165 C328.44255,48.8174972 326.915446,48.2229449 324.667516,47.717975 C321.458514,47.017533 319.039582,46.0646203 317.410647,44.8592083 C315.781712,43.6537964 314.967256,42.0248858 314.967256,39.9724277 C314.967256,37.8222334 315.883519,35.989709 317.71607,34.4747995 C319.548622,32.9598899 321.930904,32.2024464 324.862987,32.2024464 C326.866577,32.2024464 328.666523,32.4630721 330.26288,32.9843314 C331.859236,33.5055906 333.186798,34.2304558 334.245606,35.1589487 L334.489945,40.9986516 Z" stroke="#FFFFFF" stroke-width="2"></path>
            <path d="M183.907407,41.9074074 L183.907407,37.0925926 C183.907407,35.6607432 185.068151,34.5 186.5,34.5 C187.931849,34.5 189.092593,35.6607432 189.092593,37.0925926 L189.092593,41.9074074 L193.907407,41.9074074 C195.339257,41.9074074 196.5,43.0681506 196.5,44.5 C196.5,45.9318494 195.339257,47.0925926 193.907407,47.0925926 L189.092593,47.0925926 L189.092593,51.9074074 C189.092593,53.3392568 187.931849,54.5 186.5,54.5 C185.068151,54.5 183.907407,53.3392568 183.907407,51.9074074 L183.907407,47.0925926 L179.092593,47.0925926 C177.660743,47.0925926 176.5,45.9318494 176.5,44.5 C176.5,43.0681506 177.660743,41.9074074 179.092593,41.9074074 L183.907407,41.9074074 Z"></path>
            <path d="M111.069808,15.3960286 C111.069808,15.3960286 110.331079,18.0161549 113.085122,23.0581585 C115.841791,28.0988491 117.992771,25.3430557 117.992771,25.3430557 C117.992771,25.3430557 120.345064,22.78945 117.657104,18.9575098 C114.968269,15.1273202 111.069808,15.3960286 111.069808,15.3960286 M89.8969821,11.7667138 C86.738126,3.49845822 79.0755585,6.85906453 79.0755585,6.85906453 C79.0755585,6.85906453 78.2015995,9.81660814 80.6891222,18.0848638 C83.1762071,26.3513688 89.0234608,23.1242415 89.0234608,23.1242415 C89.0234608,23.1242415 93.0562759,20.0336566 89.8969821,11.7667138 M84.1840827,46.3815277 C84.1840827,46.3815277 88.9565025,58.8169527 90.0987323,52.7670736 C91.2413997,46.7176321 80.083434,28.7040996 80.083434,28.7040996 C80.2177883,32.7369147 84.1840827,46.3815277 84.1840827,46.3815277 M15.9614552,15.3960286 C16.1632054,23.3942629 21.4056462,26.8892234 23.2205224,25.1417431 C25.0349609,23.3942629 24.3627521,19.6305939 20.9351875,17.2778631 C17.50631,14.9246947 15.9614552,15.3960286 15.9614552,15.3960286 M160.539736,16.7225031 C160.271903,19.4113383 157.851339,18.4117778 157.851339,18.4117778 C157.851339,18.4117778 153.952878,15.390777 150.524876,15.7277566 C147.097311,16.0625481 148.171707,23.7286167 148.171707,23.7286167 C148.171707,23.7286167 148.912187,30.7517981 146.895561,31.3404184 C144.879372,31.9290388 142.391412,29.5106626 142.391412,29.5106626 C142.391412,29.5106626 139.299952,26.0817851 137.82118,21.7141785 L137.418117,21.5793867 C137.418117,21.5793867 137.888138,29.2419542 137.351597,30.9894344 C136.947659,31.863831 133.250948,31.7959975 132.646135,30.2498297 C132.040885,28.7040996 129.083341,17.9500719 128.882028,13.4459229 C128.882028,13.4459229 123.100858,8.54046177 118.061042,7.73302348 C113.019039,6.92602282 111.808975,10.0853166 111.808975,10.0853166 C111.808975,10.0853166 125.521422,13.9163815 125.050963,24.872597 C124.580505,35.8283749 113.993216,31.778492 112.795407,30.8773996 C111.636547,30.0065041 105.448375,26.2734697 103.643127,15.9386972 C103.582733,15.5864002 103.475074,14.0520487 103.475074,14.0520487 C103.475074,14.0520487 98.1643625,10.4883793 95.2068189,9.54789968 C95.2068189,9.54789968 103.475074,23.4616588 93.3919427,29.7793711 C88.8217106,32.5360398 85.1923959,26.7548692 85.1923959,26.7548692 C85.1923959,26.7548692 98.8365713,41.9456499 95.8120693,54.7832623 C94.3718095,60.8970363 91.3157978,61.5543654 88.5101139,60.5644329 C84.2514786,58.8830357 82.6374773,56.3972636 82.6374773,56.3972636 C82.6374773,56.3972636 77.1258904,48.3977165 75.849744,36.5005837 C74.5722848,24.6038886 72.6900126,10.2196708 72.6900126,10.2196708 C72.6900126,10.2196708 70.0685734,7.66562755 67.649322,7.53127331 C65.2296329,7.39691908 66.3049044,14.7238198 66.3049044,14.7238198 C66.3049044,14.7238198 68.1871765,25.8809102 68.0523847,27.7631824 C67.9180304,29.6450169 67.7836762,30.6537677 65.5652997,31.3251012 C63.3473608,31.9986229 60.9281094,29.1749959 60.9281094,29.1749959 C60.9281094,29.1749959 54.5421259,19.495802 54.0038337,18.0161549 L53.6681669,17.4122173 L53.3320625,17.81528 C53.3320625,17.81528 57.8353363,30.9894344 53.5338127,31.190747 C49.2322891,31.3924971 46.4095374,26.4861607 46.4095374,26.4861607 C46.4095374,26.4861607 41.5027633,18.285301 41.3010132,17.3443838 L40.9653464,17.7483217 C40.9653464,17.7483217 42.9815352,27.293599 42.5784725,29.6450169 C42.1749721,31.9986229 39.9570332,31.5268514 39.9570332,31.5268514 C39.9570332,31.5268514 37.1342815,31.863831 36.3946768,30.0480795 C35.6555097,28.2345163 32.9657993,16.2025916 32.6301325,12.3706514 C32.6301325,12.3706514 25.5728155,7.32952315 20.9351875,7.26256485 C16.297122,7.19604419 16.7680182,10.2043536 16.7680182,10.2043536 C16.7680182,10.2043536 33.7736752,16.0253491 29.1347343,27.5194191 C27.0515873,30.4769628 24.6318982,31.4056262 21.203896,31.3386679 C17.7758938,31.2699591 13.7303872,29.1806851 10.9737185,22.9968894 C9.65730963,20.0450351 9.12251852,17.2481039 9.12251852,15.1290707 L9.12251852,15.129946 C9.12251852,15.129946 5.93259023,14.5211944 4.32121473,15.8664872 C2.70852633,17.2104672 1.77417362,15.8664872 1.77417362,15.8664872 C1.77417362,15.8664872 -1.04814049,11.8437378 1.7080906,10.767591 C4.46388405,9.69231954 8.71289129,8.69450962 8.71289129,8.69450962 L8.71026548,8.69450962 C9.10501309,6.9439659 10.2546827,4.11158616 13.6100373,1.56104396 C18.650728,-2.2691457 28.3290466,2.15929227 28.3290466,2.15929227 L32.2949034,4.51027249 C32.2949034,4.51027249 32.4283823,0.932598762 35.31853,0.401308743 C38.209553,-0.130418911 39.4191787,0.440258341 44.460307,12.6730579 C47.4174129,18.9246871 47.6191631,18.6052129 47.6191631,18.6052129 L47.9552675,18.6813615 C47.9552675,18.6813615 45.6703703,6.72033394 46.5438916,3.49364422 C47.4174129,0.267392149 51.2489155,0.605684723 51.2489155,0.605684723 C51.2489155,0.605684723 53.3320625,-0.130418911 55.0125845,5.78379305 C56.6935441,11.7006308 59.9197962,17.8853018 59.9197962,17.8853018 L60.3232965,17.8853018 C60.3232965,17.8853018 58.9106077,5.98685612 61.0615883,2.08839525 C63.2130066,-1.81006561 68.7919894,0.944852568 68.7919894,0.944852568 C68.7919894,0.944852568 72.6900126,2.99648981 73.2952631,3.60086503 C73.2952631,3.60086503 77.9241383,-0.294970021 84.4488524,0.417063637 C99.0391967,3.28795534 104.227371,7.18685384 104.227371,7.18685384 C104.227371,7.18685384 106.734587,0.848572664 114.497811,0.25863943 C123.369566,-0.411381179 128.20982,5.17197802 128.20982,5.17197802 C128.20982,5.17197802 128.142861,1.5457267 131.234322,0.269580329 C134.326219,-1.00831659 136.410242,5.76935106 136.410242,5.76935106 L141.585287,19.6358455 L142.05662,19.6358455 C142.05662,19.6358455 142.324454,10.7623394 147.433415,9.28181703 C152.541502,7.80479577 159.195756,12.9435169 159.195756,12.9435169 C159.195756,12.9435169 160.808445,14.0345432 160.539736,16.7225031" transform="translate(80.534969, 30.469999) scale(-1, 1) rotate(-180.000000) translate(-80.534969, -30.469999) "></path>
        </g>
    </g>
</svg>