<?xml version="1.0" encoding="UTF-8" standalone="no"?>
<svg width="401px" height="72px" viewBox="0 0 401 72" version="1.1" xmlns="http://www.w3.org/2000/svg" xmlns:xlink="http://www.w3.org/1999/xlink">
    <g stroke="none" stroke-width="1" fill="none" fill-rule="evenodd">
        <path d="M265.34082,25.2416992 C270.221704,25.2416992 273.964342,26.3234755 276.568848,28.4870605 C279.173353,30.6506456 280.475586,33.7216598 280.475586,37.7001953 C280.475586,39.8740343 279.870612,41.8017494 278.660645,43.4833984 C277.450678,45.1650475 275.717785,46.4877881 273.461914,47.4516602 C275.902356,48.2514688 277.660883,49.5537019 278.737549,51.3583984 C279.814214,53.163095 280.352539,55.3881704 280.352539,58.0336914 L280.352539,61.6328125 C280.352539,63.0068428 280.526854,64.0219694 280.875488,64.6782227 C281.224123,65.3344759 281.798336,65.7241205 282.598145,65.847168 L284.074707,66.0317383 L284.074707,70 L280.813965,70 C278.455555,70 276.779058,69.1796957 275.784424,67.5390625 C274.78979,65.8984293 274.29248,63.9091914 274.29248,61.5712891 L274.29248,58.0952148 C274.29248,55.654773 273.584968,53.6962964 272.169922,52.2197266 C270.754876,50.7431567 268.857922,50.0048828 266.479004,50.0048828 L256.758301,50.0048828 L256.758301,65.2626953 L261.772461,66.1240234 L261.772461,70 L245.684082,70 L245.684082,66.1240234 L250.698242,65.2626953 L250.698242,29.9790039 L245.684082,29.1176758 L245.684082,25.2416992 L250.698242,25.2416992 L265.34082,25.2416992 Z M256.758301,45.2368164 L264.725586,45.2368164 C268.109392,45.2368164 270.570305,44.5908268 272.108398,43.2988281 C273.646492,42.0068295 274.415527,40.1201296 274.415527,37.6386719 C274.415527,35.2802616 273.677253,33.4140694 272.200684,32.0400391 C270.724114,30.6660088 268.437515,29.9790039 265.34082,29.9790039 L256.758301,29.9790039 L256.758301,45.2368164 Z M312.166309,70 C311.981737,69.0976517 311.838184,68.2876012 311.735645,67.5698242 C311.633105,66.8520472 311.561328,66.1342809 311.520313,65.4165039 C310.351361,66.9135817 308.890194,68.1594189 307.136768,69.1540527 C305.383341,70.1486866 303.512022,70.6459961 301.522754,70.6459961 C298.056916,70.6459961 295.421689,69.8000573 293.616992,68.1081543 C291.812296,66.4162513 290.909961,64.0322419 290.909961,60.9560547 C290.909961,57.7978358 292.18656,55.3625574 294.739795,53.6501465 C297.29303,51.9377356 300.794704,51.081543 305.244922,51.081543 L311.489551,51.081543 L311.489551,47.2055664 C311.489551,45.2573145 310.874323,43.714117 309.643848,42.5759277 C308.413373,41.4377384 306.700988,40.8686523 304.506641,40.8686523 C302.989055,40.8686523 301.650934,41.0634746 300.492236,41.453125 C299.333539,41.8427754 298.395316,42.3759732 297.677539,43.0527344 L297.031543,46.5595703 L292.355762,46.5595703 L292.355762,40.0996094 C293.873347,38.8896424 295.708778,37.9206579 297.862109,37.192627 C300.015441,36.464596 302.353308,36.1005859 304.875781,36.1005859 C308.649238,36.1005859 311.704871,37.0644435 314.042773,38.9921875 C316.380676,40.9199315 317.549609,43.6782047 317.549609,47.2670898 L317.549609,63.2939453 C317.549609,63.7246115 317.554736,64.1450175 317.56499,64.5551758 C317.575244,64.9653341 317.600879,65.3754862 317.641895,65.7856445 L320.102832,66.1240234 L320.102832,70 L312.166309,70 Z M302.414844,65.5703125 C304.424619,65.5703125 306.26005,65.0883837 307.921191,64.1245117 C309.582333,63.1606397 310.771774,62.0019599 311.489551,60.6484375 L311.489551,55.1728516 L305.02959,55.1728516 C302.548132,55.1728516 300.584529,55.7470646 299.138721,56.8955078 C297.692913,58.0439511 296.97002,59.4384684 296.97002,61.0791016 C296.97002,62.5351635 297.421187,63.6477012 298.323535,64.416748 C299.225883,65.1857949 300.589639,65.5703125 302.414844,65.5703125 L302.414844,65.5703125 Z M326.722754,66.1240234 L331.736914,65.2626953 L331.736914,41.4838867 L326.722754,40.6225586 L326.722754,36.7158203 L337.796973,36.7158203 L337.796973,65.2626953 L342.811133,66.1240234 L342.811133,70 L326.722754,70 L326.722754,66.1240234 Z M337.796973,28.1948242 L331.736914,28.1948242 L331.736914,22.0117188 L337.796973,22.0117188 L337.796973,28.1948242 Z M348.169824,25.918457 L348.169824,22.0117188 L359.244043,22.0117188 L359.244043,65.2626953 L364.258203,66.1240234 L364.258203,70 L348.169824,70 L348.169824,66.1240234 L353.183985,65.2626953 L353.183985,26.7797852 L348.169824,25.918457 Z M395.887403,47.1748047 L391.334668,47.1748047 L390.350293,43.1757812 C389.612008,42.4785121 388.684039,41.9196798 387.566358,41.4992676 C386.448676,41.0788553 385.182331,40.8686523 383.767285,40.8686523 C381.613954,40.8686523 380.014361,41.3403273 378.968457,42.2836914 C377.922554,43.2270555 377.39961,44.3652277 377.39961,45.6982422 C377.39961,47.0107487 377.861031,48.0463829 378.783887,48.8051758 C379.706743,49.5639686 381.583189,50.2407197 384.413281,50.8354492 C388.617404,51.7377975 391.744814,52.963127 393.795606,54.5114746 C395.846397,56.0598222 396.871778,58.1362174 396.871778,60.7407227 C396.871778,63.6938624 395.677209,66.0829987 393.288037,67.9082031 C390.898865,69.7334076 387.776582,70.6459961 383.921094,70.6459961 C381.39862,70.6459961 379.13253,70.3537627 377.122754,69.7692871 C375.112978,69.1848115 373.318563,68.3388727 371.739453,67.2314453 L371.708692,59.6333008 L376.261426,59.6333008 L377.39961,64.09375 C378.096879,64.7294954 379.045356,65.1909165 380.245069,65.4780273 C381.444782,65.7651382 382.670111,65.9086914 383.921094,65.9086914 C386.074425,65.9086914 387.761176,65.4729047 388.981397,64.6013184 C390.201618,63.729732 390.811719,62.5864329 390.811719,61.1713867 C390.811719,59.8383722 390.304156,58.7412152 389.289014,57.8798828 C388.273872,57.0185504 386.351284,56.2700227 383.521192,55.6342773 C379.481132,54.752437 376.435753,53.552742 374.384961,52.0351562 C372.33417,50.5175705 371.308789,48.4668098 371.308789,45.8828125 C371.308789,43.1757677 372.462342,40.8686619 374.769483,38.9614258 C377.076623,37.0541897 380.075861,36.1005859 383.767285,36.1005859 C386.289759,36.1005859 388.55585,36.4287077 390.565625,37.0849609 C392.575401,37.7412142 394.246771,38.6538027 395.579785,39.8227539 L395.887403,47.1748047 Z" stroke="#FFFFFF" stroke-width="2" fill="#FFFFFF"></path>
        <path d="M210,50.5 L210,44 C210,42.0670034 211.567003,40.5 213.5,40.5 C215.432997,40.5 217,42.0670034 217,44 L217,50.5 L223.5,50.5 C225.432997,50.5 227,52.0670034 227,54 C227,55.9329966 225.432997,57.5 223.5,57.5 L217,57.5 L217,64 C217,65.9329966 215.432997,67.5 213.5,67.5 C211.567003,67.5 210,65.9329966 210,64 L210,57.5 L203.5,57.5 C201.567003,57.5 200,55.9329966 200,54 C200,52.0670034 201.567003,50.5 203.5,50.5 L210,50.5 Z" fill="#FFFFFF"></path>
        <path d="M128.709193,18.9218038 C128.709193,18.9218038 127.849272,21.9717715 131.055126,27.8409343 C134.264036,33.7085688 136.767893,30.5006773 136.767893,30.5006773 C136.767893,30.5006773 139.506089,27.5281432 136.377159,23.0675591 C133.24721,18.6090127 128.709193,18.9218038 128.709193,18.9218038 M104.062886,14.6970866 C100.385808,5.07239318 91.4661683,8.98431933 91.4661683,8.98431933 C91.4661683,8.98431933 90.4488331,12.4270589 93.344443,22.0517523 C96.2395435,31.674408 103.046061,27.9178585 103.046061,27.9178585 C103.046061,27.9178585 107.740474,24.3202517 104.062886,14.6970866 M97.4127647,54.9905882 C97.4127647,54.9905882 102.968118,69.4660904 104.297734,62.4237064 C105.627861,55.3818318 92.6393895,34.4131129 92.6393895,34.4131129 C92.7957851,39.1075261 97.4127647,54.9905882 97.4127647,54.9905882 M17.9979639,18.9218038 C18.2328119,28.2321779 24.3352944,32.3004996 26.4479078,30.2663387 C28.5600117,28.2321779 27.7775245,23.8510651 23.7876553,21.1123602 C19.7962578,18.3731459 17.9979639,18.9218038 17.9979639,18.9218038 M186.294845,20.4658913 C185.983072,23.5958398 183.165406,22.4322978 183.165406,22.4322978 C183.165406,22.4322978 178.627388,18.9156906 174.637009,19.3079531 C170.64714,19.6976683 171.897795,28.6213837 171.897795,28.6213837 C171.897795,28.6213837 172.759753,36.7967439 170.412292,37.4819295 C168.06534,38.1671152 165.169221,35.3519955 165.169221,35.3519955 C165.169221,35.3519955 161.570595,31.360598 159.849225,26.2764695 L159.380039,26.1195645 C159.380039,26.1195645 159.927168,35.0392045 159.302605,37.0733653 C158.8324,38.0912099 154.52923,38.012248 153.825195,36.2124257 C153.120651,34.4131129 149.677912,21.8948473 149.443573,16.6517761 C149.443573,16.6517761 142.71398,10.941556 136.847364,10.0016545 C130.978202,9.06226238 129.569623,12.7398499 129.569623,12.7398499 C129.569623,12.7398499 145.531647,17.1994152 144.984008,29.9530382 C144.436369,42.7061518 132.112197,37.9918707 130.717882,36.9429508 C129.368907,35.9291817 122.165542,31.5837291 120.064137,19.5534991 C119.993835,19.1434066 119.868515,17.357339 119.868515,17.357339 C119.868515,17.357339 113.686561,13.2090366 110.243821,12.1142678 C110.243821,12.1142678 119.868515,28.3106303 108.131208,35.6647866 C102.811213,38.873697 98.5864954,32.144104 98.5864954,32.144104 C98.5864954,32.144104 114.469048,49.8269883 110.948365,64.7706583 C109.271826,71.8874194 105.714464,72.6525858 102.448497,71.5002513 C97.4912172,69.5430146 95.612433,66.6494425 95.612433,66.6494425 C95.612433,66.6494425 89.19665,57.3375401 87.7111471,43.4886389 C86.2241159,29.6402471 84.0330501,12.8962455 84.0330501,12.8962455 C84.0330501,12.8962455 80.9815541,9.92320198 78.1654156,9.76680644 C75.3487676,9.61041091 76.6004414,18.1393167 76.6004414,18.1393167 C76.6004414,18.1393167 78.7915072,31.1267689 78.6346022,33.3178347 C78.4782067,35.5083911 78.3218111,36.6826312 75.7395018,37.4640994 C73.1577018,38.2481148 70.3415633,34.9612614 70.3415633,34.9612614 C70.3415633,34.9612614 62.9079357,23.6941601 62.2813347,21.9717715 L61.8906006,21.2687557 L61.499357,21.7379423 C61.499357,21.7379423 66.7414094,37.0733653 61.734205,37.3077039 C56.7270007,37.5425519 53.4411661,31.8313129 53.4411661,31.8313129 C53.4411661,31.8313129 47.7294177,22.285072 47.4945697,21.1897938 L47.1038356,21.6599993 C47.1038356,21.6599993 49.4507875,32.7712145 48.9816009,35.5083911 C48.5119048,38.2481148 45.9301049,37.6989474 45.9301049,37.6989474 C45.9301049,37.6989474 42.6442703,38.0912099 41.7833307,35.9775777 C40.9229005,33.8664926 37.7919332,19.8606865 37.4011991,15.4001024 C37.4011991,15.4001024 29.1861032,9.53195842 23.7876553,9.45401537 C18.388698,9.37658175 18.9368465,12.8784154 18.9368465,12.8784154 C18.9368465,12.8784154 38.7323442,19.6543666 33.332368,33.0340812 C30.907473,36.4768208 28.090825,37.5578349 24.1004464,37.4798918 C20.1100678,37.399911 15.400881,34.967884 12.1919706,27.7696139 C10.6596,24.3334969 10.0370744,21.0777188 10.0370744,18.6110505 L10.0370744,18.6120693 C10.0370744,18.6120693 6.32382667,17.9034498 4.44809909,19.4694429 C2.57084321,21.0339077 1.4832065,19.4694429 1.4832065,19.4694429 C1.4832065,19.4694429 -1.80211864,14.7867466 1.40628231,13.534054 C4.61417383,12.2823803 9.56024636,11.1208759 9.56024636,11.1208759 L9.55718977,11.1208759 C10.0166972,9.08314908 11.3549743,5.78610701 15.2607873,2.81713897 C21.1284218,-1.64140741 32.3945042,3.51353213 32.3945042,3.51353213 L37.0109744,6.25019931 C37.0109744,6.25019931 37.1663511,2.08559502 40.5306381,1.46714492 C43.895944,0.848185386 45.3040133,1.51248434 51.1721572,15.7521197 C54.6143874,23.0293517 54.8492354,22.6574666 54.8492354,22.6574666 L55.2404789,22.7461077 C55.2404789,22.7461077 52.5807359,8.82282947 53.5975616,5.06678943 C54.6143874,1.31125882 59.074462,1.70504953 59.074462,1.70504953 C59.074462,1.70504953 61.499357,0.848185386 63.4555748,7.7326456 C65.412302,14.6201624 69.1678326,21.8194514 69.1678326,21.8194514 L69.6375287,21.8194514 C69.6375287,21.8194514 67.9930831,7.96902192 70.49694,3.43100419 C73.0013063,-1.10701354 79.4955418,2.09985911 79.4955418,2.09985911 C79.4955418,2.09985911 84.0330501,4.488075 84.7375942,5.1916002 C84.7375942,5.1916002 90.1258534,0.65663906 97.7209709,1.48548446 C114.704915,4.82735652 120.744228,9.36588368 120.744228,9.36588368 C120.744228,9.36588368 123.662762,1.98778414 132.699571,1.30107018 C143.026771,0.521130224 148.661086,7.02046006 148.661086,7.02046006 C148.661086,7.02046006 148.583143,2.79930886 152.181769,1.31380597 C155.780904,-0.173734637 158.206817,7.71583435 158.206817,7.71583435 L164.230847,23.8571783 L164.779505,23.8571783 C164.779505,23.8571783 165.091278,13.5279408 171.038384,11.8045333 C176.984471,10.0852013 184.73038,16.0669485 184.73038,16.0669485 C184.73038,16.0669485 186.607636,17.3369617 186.294845,20.4658913" fill="#FFFFFF" transform="translate(93.165001, 36.468715) scale(-1, 1) rotate(-180.000000) translate(-93.165001, -36.468715) "></path>
    </g>
</svg>
