<?xml version="1.0" encoding="UTF-8" standalone="no"?>
<svg width="173px" height="54px" viewBox="0 0 173 54" version="1.1" xmlns="http://www.w3.org/2000/svg" xmlns:xlink="http://www.w3.org/1999/xlink">
    <defs></defs>
    <g stroke="none" stroke-width="1" fill="none" fill-rule="evenodd">
        <g fill="#CCCCCC">
            <path d="M82.1139133,32.5215854 L79.5616857,32.5215854 L79.5616857,26.4961642 C79.5616857,25.3673968 79.3809354,24.5476674 79.0194347,24.0361562 C78.6583439,23.5246451 78.0484652,23.2688895 77.1902085,23.2688895 C76.1663664,23.2688895 75.3757374,23.6373579 74.8187312,24.3747045 L74.8187312,32.5215854 L72.2669135,32.5215854 L72.2669135,15.5958122 L74.8187312,15.5958122 L74.8187312,22.0954468 C75.6019827,21.4331054 76.4749945,21.1023446 77.4385865,21.1023446 C80.5551978,21.1023446 82.1139133,22.9000112 82.1139133,26.4961642 L82.1139133,32.5215854 Z"></path>
            <path d="M83.9410902,26.9248827 C83.9410902,26.112121 84.0730666,25.3489529 84.3366096,24.6341488 C84.5997427,23.9193448 84.9764084,23.3024984 85.4657869,22.7836097 C85.9551654,22.2647209 86.5498791,21.8544464 87.249928,21.5536057 C87.9499769,21.252765 88.7291297,21.1023446 89.5873864,21.1023446 C90.4456432,21.1023446 91.2211072,21.252765 91.9137786,21.5536057 C92.6060401,21.8544464 93.197065,22.2684097 93.6864434,22.794676 C94.1758219,23.3213522 94.5561764,23.9381986 94.8270969,24.6456251 C95.0980175,25.3526417 95.2336827,26.112121 95.2336827,26.9248827 C95.2336827,27.7372346 95.1017063,28.4971238 94.8381633,29.2041404 C94.5750301,29.911157 94.1983645,30.5280034 93.708986,31.0546796 C93.2196075,31.5813557 92.6248938,31.9949092 91.9248449,32.2957499 C91.224796,32.5970005 90.4456432,32.7474208 89.5873864,32.7474208 C88.7139647,32.7474208 87.9311231,32.5970005 87.2384518,32.2957499 C86.5457804,31.9949092 85.9551654,31.5850445 85.4657869,31.0661558 C84.9764084,30.5468572 84.5997427,29.9336996 84.3366096,29.226683 C84.0730666,28.5196663 83.9410902,27.7523996 83.9410902,26.9248827 L83.9410902,26.9248827 Z M86.5609454,26.9248827 C86.5609454,28.0532403 86.8281772,28.9483848 87.3626408,29.6103163 C87.8971044,30.2722478 88.6389595,30.6034185 89.5873864,30.6034185 C90.5358134,30.6034185 91.2776685,30.2722478 91.8121321,29.6103163 C92.3465957,28.9483848 92.6138275,28.0532403 92.6138275,26.9248827 C92.6138275,25.7965252 92.3465957,24.9050694 91.8121321,24.2505155 C91.2776685,23.5959615 90.5358134,23.2688895 89.5873864,23.2688895 C88.6389595,23.2688895 87.8971044,23.5959615 87.3626408,24.2505155 C86.8281772,24.9050694 86.5609454,25.7965252 86.5609454,26.9248827 Z"></path>
            <path d="M106.772604,32.5215854 L104.423669,32.5215854 L104.310957,31.686691 C103.558035,32.3937076 102.662071,32.7474208 101.623064,32.7474208 C98.5818676,32.7474208 97.0612695,30.9944295 97.0612695,27.4888566 L97.0612695,21.3052276 L99.6130872,21.3052276 L99.6130872,27.3085161 C99.6130872,28.4368737 99.8012151,29.2607017 100.177881,29.7795905 C100.554137,30.2984792 101.14885,30.5583334 101.962022,30.5583334 C102.955534,30.5583334 103.708455,30.2119977 104.220376,29.5201461 L104.220376,21.3052276 L106.772604,21.3052276 L106.772604,32.5215854 Z"></path>
            <path d="M113.741944,38.1633732 C112.868522,38.1633732 112.100845,38.0732029 111.438094,37.8928625 C110.775753,37.7121121 110.226124,37.4678327 109.789618,37.1592046 C109.352702,36.8509864 109.021532,36.4972731 108.795696,36.0984747 C108.569861,35.6996764 108.457148,35.2746467 108.457148,34.8233856 C108.457148,33.7253581 109.089159,32.8900538 110.354002,32.3182925 C109.646575,31.9272816 109.292452,31.4083928 109.292452,30.7612164 C109.292452,30.0841199 109.683873,29.5578536 110.467125,29.1815978 C109.277697,28.354081 108.682983,27.1429308 108.682983,25.5481472 C108.682983,24.9161358 108.788319,24.3255207 108.998989,23.7767119 C109.20966,23.2274931 109.51091,22.7573783 109.902331,22.3659575 C110.293752,21.9749466 110.772064,21.6663185 111.336448,21.4408929 C111.901241,21.2150574 112.537351,21.1023446 113.244778,21.1023446 C114.253865,21.1023446 115.134664,21.3429352 115.887176,21.8245262 C116.610177,21.4634354 117.445891,21.2826851 118.394318,21.2826851 L118.958702,21.2826851 L118.755819,22.9303412 L117.897562,22.9303412 C117.641396,22.9303412 117.355311,22.9528838 117.039305,22.9979689 C117.565981,23.7353155 117.829524,24.5775875 117.829524,25.5256046 C117.829524,26.127286 117.727878,26.6953585 117.524585,27.2294122 C117.321702,27.7634659 117.02414,28.2335808 116.632719,28.6397567 C116.241299,29.0463425 115.762986,29.366037 115.198603,29.59925 C114.633809,29.8320531 113.997699,29.9488646 113.290273,29.9488646 C112.823437,29.9488646 112.386521,29.9037795 111.980345,29.8136092 C111.75451,29.9336996 111.641387,30.0841199 111.641387,30.2648703 C111.641387,30.4001256 111.690161,30.5128384 111.788119,30.6034185 C111.886076,30.6935888 112.047973,30.7763814 112.273808,30.8513867 C112.499644,30.9268018 112.804583,30.9981182 113.188626,31.0661558 C113.57226,31.1337835 114.057949,31.2050999 114.645285,31.280515 C115.142041,31.3555203 115.653962,31.4534779 116.181049,31.5735683 C116.708135,31.6940685 117.189726,31.8748189 117.626231,32.1154095 C118.063147,32.356 118.424238,32.6720057 118.710324,33.0630167 C118.996409,33.4544375 119.154617,33.9585711 119.184537,34.5754175 C119.184537,35.6586899 118.710324,36.5271932 117.761897,37.1817472 C116.81347,37.8363011 115.473212,38.1633732 113.741944,38.1633732 L113.741944,38.1633732 Z M113.244778,23.043054 C112.522186,23.043054 111.968869,23.2688895 111.584826,23.7201505 C111.201192,24.1714116 111.008966,24.7808804 111.008966,25.5481472 C111.008966,26.3154139 111.204881,26.9248827 111.596302,27.3761438 C111.987723,27.8274048 112.544729,28.0532403 113.26732,28.0532403 C113.990322,28.0532403 114.543639,27.823716 114.927682,27.3646676 C115.311316,26.9060289 115.503542,26.2928713 115.503542,25.5256046 C115.503542,24.7583379 115.307627,24.1525578 114.916206,23.7086743 C114.524785,23.2652007 113.967779,23.043054 113.244778,23.043054 L113.244778,23.043054 Z M113.854656,33.1761393 L112.296351,32.9503039 C111.81476,33.1007242 111.422929,33.3187723 111.122088,33.6048578 C110.820838,33.8905335 110.670417,34.2290818 110.670417,34.6205026 C110.670417,35.1320137 110.93396,35.5418785 111.460637,35.8505066 C111.987723,36.1587249 112.725479,36.312834 113.673906,36.312834 C114.622743,36.312834 115.386731,36.1624136 115.966279,35.8615729 C116.546238,35.5607322 116.836012,35.1697213 116.836012,34.6881303 C116.836012,34.2516243 116.579847,33.9245523 116.067926,33.7065043 C115.556005,33.4880464 114.818248,33.3113947 113.854656,33.1761393 Z"></path>
            <path d="M145.325299,32.7474208 C144.165791,32.7474208 143.172279,32.3785426 142.344353,31.6416058 L142.253773,32.5215854 L139.882295,32.5215854 L139.882295,15.5958122 L142.434523,15.5958122 L142.434523,22.0729042 C143.172279,21.4257279 144.135871,21.1023446 145.325299,21.1023446 C146.13847,21.1023446 146.876227,21.252765 147.538568,21.5536057 C148.201319,21.8544464 148.765703,22.2647209 149.232539,22.7836097 C149.699375,23.3024984 150.060466,23.9193448 150.316631,24.6341488 C150.572387,25.3489529 150.700674,26.112121 150.700674,26.9248827 C150.700674,27.7372346 150.576485,28.4971238 150.327698,29.2041404 C150.079319,29.911157 149.721917,30.5280034 149.255082,31.0546796 C148.788246,31.5813557 148.223862,31.9949092 147.561111,32.2957499 C146.898769,32.5970005 146.153635,32.7474208 145.325299,32.7474208 L145.325299,32.7474208 Z M145.122006,23.2688895 C144.248994,23.2688895 143.5637,23.5922727 143.066944,24.2390393 C142.570188,24.8862156 142.3214,25.7813602 142.3214,26.9248827 C142.3214,28.0983254 142.570188,29.0049461 143.066944,29.6443351 C143.5637,30.2837241 144.248994,30.6034185 145.122006,30.6034185 C146.025348,30.6034185 146.74425,30.2611815 147.279124,29.5762976 C147.813587,28.8918235 148.080819,28.0081552 148.080819,26.9248827 C148.080819,25.8416103 147.817276,24.9612209 147.29019,24.2845342 C146.763104,23.6074377 146.040513,23.2688895 145.122006,23.2688895 Z"></path>
            <path d="M130.151697,32.5215854 L127.59947,32.5215854 L127.59947,26.4961642 C127.59947,25.3673968 127.418719,24.5476674 127.057219,24.0361562 C126.696128,23.5246451 126.086249,23.2688895 125.227992,23.2688895 C124.20415,23.2688895 123.413931,23.6373579 122.856515,24.3747045 L122.856515,32.5215854 L120.304697,32.5215854 L120.304697,15.5958122 L122.856515,15.5958122 L122.856515,22.0954468 C123.639767,21.4331054 124.512778,21.1023446 125.47637,21.1023446 C128.592982,21.1023446 130.151697,22.9000112 130.151697,26.4961642 L130.151697,32.5215854 Z"></path>
            <path d="M152.064294,26.9248827 C152.064294,26.112121 152.196271,25.3489529 152.459814,24.6341488 C152.722947,23.9193448 153.099613,23.3024984 153.588991,22.7836097 C154.078369,22.2647209 154.673083,21.8544464 155.373132,21.5536057 C156.073181,21.252765 156.852334,21.1023446 157.710591,21.1023446 C158.568847,21.1023446 159.344311,21.252765 160.036983,21.5536057 C160.729244,21.8544464 161.320269,22.2684097 161.809648,22.794676 C162.299026,23.3213522 162.679381,23.9381986 162.950301,24.6456251 C163.221222,25.3526417 163.356887,26.112121 163.356887,26.9248827 C163.356887,27.7372346 163.22491,28.4971238 162.961367,29.2041404 C162.698234,29.911157 162.321569,30.5280034 161.83219,31.0546796 C161.342812,31.5813557 160.748098,31.9949092 160.048049,32.2957499 C159.348,32.5970005 158.568847,32.7474208 157.710591,32.7474208 C156.837169,32.7474208 156.054327,32.5970005 155.361656,32.2957499 C154.668985,31.9949092 154.078369,31.5850445 153.588991,31.0661558 C153.099613,30.5468572 152.722947,29.9336996 152.459814,29.226683 C152.196271,28.5196663 152.064294,27.7523996 152.064294,26.9248827 L152.064294,26.9248827 Z M154.68415,26.9248827 C154.68415,28.0532403 154.951381,28.9483848 155.485845,29.6103163 C156.020309,30.2722478 156.762164,30.6034185 157.710591,30.6034185 C158.659018,30.6034185 159.400463,30.2722478 159.935336,29.6103163 C160.4698,28.9483848 160.737032,28.0532403 160.737032,26.9248827 C160.737032,25.7965252 160.4698,24.9050694 159.935336,24.2505155 C159.400463,23.5959615 158.659018,23.2688895 157.710591,23.2688895 C156.762164,23.2688895 156.020309,23.5959615 155.485845,24.2505155 C154.951381,24.9050694 154.68415,25.7965252 154.68415,26.9248827 Z"></path>
            <path d="M70.4393268,30.6485036 L70.2134913,32.7474208 L68.2711424,32.7474208 C67.7743864,32.7474208 67.3374706,32.6720057 66.9612148,32.5215854 C66.584959,32.371165 66.2722322,32.1678721 66.0238542,31.9121166 C65.7754762,31.656361 65.5910371,31.3555203 65.4705368,31.0095945 C65.3500366,30.6636686 65.2897865,30.2874128 65.2897865,29.8812369 L65.2897865,23.3816023 L63.5962255,23.3816023 L63.822061,21.3052276 L65.2897865,21.3052276 L65.2897865,17.9717979 L67.8420141,17.7008774 L67.8420141,21.3052276 L70.4618693,21.3052276 L70.4618693,23.3816023 L67.8420141,23.3816023 L67.8420141,28.7077942 C67.8420141,29.1742203 67.8571791,29.5389999 67.8870992,29.802133 C67.9174292,30.0652662 67.9924344,30.2570828 68.1129347,30.3775831 C68.2334349,30.4980833 68.4215628,30.5730885 68.6777282,30.6034185 C68.9334838,30.6333387 69.2876069,30.6485036 69.7392778,30.6485036 L70.4393268,30.6485036 L70.4393268,30.6485036 Z"></path>
            <path d="M137.976424,30.6485036 L137.750589,32.7474208 L135.80824,32.7474208 C135.311484,32.7474208 134.874978,32.6720057 134.498312,32.5215854 C134.122057,32.371165 133.80974,32.1678721 133.561362,31.9121166 C133.312574,31.656361 133.128135,31.3555203 133.008044,31.0095945 C132.887544,30.6636686 132.827294,30.2874128 132.827294,29.8812369 L132.827294,23.3816023 L131.133323,23.3816023 L131.359159,21.3052276 L132.827294,21.3052276 L132.827294,17.9717979 L135.379112,17.7008774 L135.379112,21.3052276 L137.998967,21.3052276 L137.998967,23.3816023 L135.379112,23.3816023 L135.379112,28.7077942 C135.379112,29.1742203 135.394277,29.5389999 135.424607,29.802133 C135.454527,30.0652662 135.529942,30.2570828 135.650442,30.3775831 C135.770942,30.4980833 135.95907,30.5730885 136.214826,30.6034185 C136.470991,30.6333387 136.824705,30.6485036 137.276375,30.6485036 L137.976424,30.6485036 L137.976424,30.6485036 Z"></path>
            <path d="M170.537717,30.6485036 L170.311881,32.7474208 L168.369532,32.7474208 C167.872776,32.7474208 167.43627,32.6720057 167.059605,32.5215854 C166.683349,32.371165 166.371032,32.1678721 166.122654,31.9121166 C165.873866,31.656361 165.689427,31.3555203 165.569337,31.0095945 C165.448836,30.6636686 165.388586,30.2874128 165.388586,29.8812369 L165.388586,23.3816023 L163.694615,23.3816023 L163.920451,21.3052276 L165.388586,21.3052276 L165.388586,17.9717979 L167.940404,17.7008774 L167.940404,21.3052276 L170.560259,21.3052276 L170.560259,23.3816023 L167.940404,23.3816023 L167.940404,28.7077942 C167.940404,29.1742203 167.955569,29.5389999 167.985899,29.802133 C168.015819,30.0652662 168.091234,30.2570828 168.211734,30.3775831 C168.331825,30.4980833 168.520363,30.5730885 168.776118,30.6034185 C169.032284,30.6333387 169.385997,30.6485036 169.837668,30.6485036 L170.537717,30.6485036 L170.537717,30.6485036 Z"></path>
            <path d="M26.4804572,0.824216226 C11.9266215,0.824216226 0.127811241,12.6219219 0.127811241,27.1774145 C0.127811241,41.7301457 11.9266215,53.5308889 26.4804572,53.5308889 C41.034293,53.5308889 52.8328271,41.7301457 52.8328271,27.1774145 C52.8328271,12.6219219 41.034293,0.824216226 26.4804572,0.824216226 Z M19.6852615,28.9110068 L18.6240645,28.9110068 L18.6240645,36.3937853 L18.6188178,36.3937853 C18.9764161,36.8137906 19.1931842,37.3569534 19.1931842,37.9506494 C19.1931842,38.6895938 18.8587815,39.3517719 18.3332915,39.7938684 L17.6782929,39.1396982 C18.0389287,38.868531 18.2725412,38.4369279 18.2725412,37.9506494 C18.2725412,37.1296921 17.6067733,36.4639242 16.785816,36.4639242 C15.9645826,36.4639242 15.2988147,37.1296921 15.2988147,37.9506494 C15.2988147,38.4330619 15.5288373,38.8619037 15.8847788,39.1336232 L15.2306087,39.7869649 C14.7095369,39.3451446 14.3781717,38.686004 14.3781717,37.9506494 C14.3781717,37.3564012 14.595492,36.8129622 14.9536426,36.3926807 L14.9536426,24.7264165 C14.9771143,24.2774167 15.3385785,23.9167809 15.7861977,23.9167809 L37.1747168,23.9195423 C37.6223359,23.9195423 37.9838002,24.2799019 38.0072719,24.7291779 L38.0072719,36.3951659 C38.3654224,36.8154475 38.5827428,37.3591625 38.5827428,37.9534108 C38.5827428,38.6884893 38.2513776,39.347906 37.7303058,39.7897263 L37.0761356,39.1363846 C37.4320771,38.8646651 37.6618236,38.4358233 37.6618236,37.9534108 C37.6618236,37.1321774 36.9963319,36.4666856 36.1750984,36.4666856 C35.3541412,36.4666856 34.6883732,37.1321774 34.6883732,37.9534108 C34.6883732,38.4396892 34.9217096,38.8710163 35.2826215,39.1424596 L34.627623,39.7966297 C34.102133,39.3545333 33.7677303,38.6923552 33.7677303,37.9534108 C33.7677303,37.359991 33.9844983,36.8168282 34.3420966,36.3962705 L34.33685,36.3962705 L34.33685,28.9137681 L33.2756529,28.9137681 L33.2756529,44.7082904 L33.9864313,45.1131082 L33.9864313,46.3971484 L26.8294952,46.3971484 L26.8294952,45.1131082 L27.5419304,44.7082904 L27.543035,44.7082904 L27.543035,39.9161973 L25.4170511,39.9161973 L25.4170511,44.7082904 L26.1275533,45.1131082 L26.1275533,46.3971484 L18.9855287,46.4092984 L18.9855287,45.1131082 L19.684157,44.7082904 L19.6852615,28.9110068 Z M26.4843231,11.7995839 C27.9693915,11.7995839 29.3144581,12.3286637 30.1436995,13.1250447 L30.7992503,12.190871 C29.7637341,11.2633246 28.215154,10.6740468 26.4843231,10.6740468 C24.7493502,10.6740468 23.1969042,11.2663621 22.1616641,12.1980506 L22.8163865,13.1330527 C23.6450757,12.3322535 24.9945604,11.7995839 26.4843231,11.7995839 Z M26.5260199,9.41320222 C28.1486049,9.41320222 29.6621154,9.88208398 30.7876526,10.7334164 C31.0162945,10.9065547 31.2222932,11.0907385 31.404268,11.2840349 L32.0606472,10.3468237 C30.7829582,9.09453935 28.7790272,8.28766509 26.5260199,8.28766509 C24.2183375,8.28766509 22.1724335,9.1337509 20.9002672,10.437673 L21.5599601,11.3801308 C21.762369,11.1514888 21.9979145,10.9347208 22.2641112,10.7334164 C23.3896483,9.88208398 24.9031589,9.41320222 26.5260199,9.41320222 Z M26.4843231,7.12402096 C29.0598592,7.1242971 31.3366142,8.06261289 32.6896888,9.48914008 L33.3413737,8.56048911 C31.7632469,7.00307266 29.2788363,5.99848383 26.4843231,5.99848383 C23.6851156,5.99848383 21.1973914,7.00583404 19.6195407,8.56766869 L20.2706734,9.49770035 C21.6226434,8.06620268 23.9038167,7.1242971 26.4843231,7.12402096 Z M31.9140181,14.3336993 L21.0468963,14.3336993 C20.6012102,14.3336993 20.2367084,14.6954397 20.2367084,15.1427827 L20.2367084,22.2323411 C20.2367084,22.6771989 20.6012102,23.0408722 21.0468963,23.0408722 L31.9140181,23.0408722 C32.3613611,23.0408722 32.7239299,22.6771989 32.7239299,22.2323411 L32.7239299,15.1427827 C32.7239299,14.6954397 32.3613611,14.3336993 31.9140181,14.3336993 Z M23.711901,19.5311625 C22.9489326,19.5311625 22.3295558,18.9098527 22.3295558,18.148265 C22.3295558,17.3828114 22.9489326,16.7634346 23.711901,16.7634346 C24.4759739,16.7634346 25.0953507,17.3828114 25.0953507,18.148265 C25.0953507,18.9098527 24.4759739,19.5311625 23.711901,19.5311625 Z M23.7176273,18.7848125 C23.372804,18.7848125 23.0928769,18.5042079 23.0928769,18.160249 C23.0928769,17.8145441 23.372804,17.5348125 23.7176273,17.5348125 C24.0629497,17.5348125 24.3428769,17.8145441 24.3428769,18.160249 C24.3428769,18.5042079 24.0629497,18.7848125 23.7176273,18.7848125 Z M29.2666863,19.5311625 C28.5009565,19.5311625 27.8804752,18.9098527 27.8804752,18.148265 C27.8804752,17.3828114 28.5009565,16.7634346 29.2666863,16.7634346 C30.0310353,16.7634346 30.6504121,17.3828114 30.6504121,18.148265 C30.6504121,18.9098527 30.0310353,19.5311625 29.2666863,19.5311625 Z M29.2585098,18.7597846 C28.912956,18.7597846 28.632949,18.47918 28.632949,18.1352211 C28.632949,17.7895162 28.912956,17.5097846 29.2585098,17.5097846 C29.6034405,17.5097846 29.882949,17.7895162 29.882949,18.1352211 C29.882949,18.47918 29.6034405,18.7597846 29.2585098,18.7597846 Z"></path>
        </g>
    </g>
</svg>